name analog
datacolumns 19
datarows 71
range 0.334 0.369
endheader
time	ground_force_vx	ground_force_vy	ground_force_vz	ground_force_px	ground_force_py	ground_force_pz	l_ground_force_vx	l_ground_force_vy	l_ground_force_vz	l_ground_force_px	l_ground_force_py	l_ground_force_pz	ground_torque_x	ground_torque_y	ground_torque_z	l_ground_torque_x	l_ground_torque_y	l_ground_torque_z
0.334	-0.0	-0.0	-0.0	-0.0	-0.0	-0.0	10.178423881530762	7.940573215484619	-772.1322631835938	-0.0	-0.0	-0.0	-0.0	-0.0	-0.0	284703.78125	-36381.265625	3536.46240234375
0.3345	-0.0	-0.0	-0.0	-0.0	-0.0	-0.0	11.02321434020996	7.305277824401855	-771.9742431640625	-0.0	-0.0	-0.0	-0.0	-0.0	-0.0	284517.15625	-36403.89453125	4130.15087890625
0.335	-0.0	-0.0	-0.0	-0.0	-0.0	-0.0	11.555116653442385	6.672596454620361	-773.5624389648438	-0.0	-0.0	-0.0	-0.0	-0.0	-0.0	284823.8125	-36484.890625	4769.54345703125
0.3355	-0.0	-0.0	-0.0	-0.0	-0.0	-0.0	11.758554458618164	5.57297945022583	-775.7459716796875	-0.0	-0.0	-0.0	-0.0	-0.0	-0.0	285094.53125	-36446.8984375	5200.98486328125
0.336	-0.0	-0.0	-0.0	-0.0	-0.0	-0.0	11.927164077758787	4.769371032714844	-777.36865234375	-0.0	-0.0	-0.0	-0.0	-0.0	-0.0	285291.8125	-36393.61328125	5570.21826171875
0.3365	-0.0	-0.0	-0.0	-0.0	-0.0	-0.0	12.379663467407228	4.385389804840088	-777.0546875	-0.0	-0.0	-0.0	-0.0	-0.0	-0.0	285401.84375	-36473.046875	5979.6845703125
0.337	-0.0	-0.0	-0.0	-0.0	-0.0	-0.0	12.095352172851562	3.7582082748413086	-777.9456787109375	-0.0	-0.0	-0.0	-0.0	-0.0	-0.0	285400.71875	-36305.62890625	6025.26220703125
0.3375	-0.0	-0.0	-0.0	-0.0	-0.0	-0.0	12.052675247192385	2.853912830352783	-778.691650390625	-0.0	-0.0	-0.0	-0.0	-0.0	-0.0	285134.84375	-36075.11328125	6242.7548828125
0.338	-0.0	-0.0	-0.0	-0.0	-0.0	-0.0	11.709823608398438	1.787252426147461	-777.716796875	-0.0	-0.0	-0.0	-0.0	-0.0	-0.0	284849.1875	-36074.4609375	6428.75830078125
0.3385	-0.0	-0.0	-0.0	-0.0	-0.0	-0.0	11.069901466369627	1.687543869018555	-779.9979248046875	-0.0	-0.0	-0.0	-0.0	-0.0	-0.0	284995.375	-36006.5703125	6375.9892578125
0.339	-0.0	-0.0	-0.0	-0.0	-0.0	-0.0	11.542019844055176	1.1577579975128174	-778.5702514648438	-0.0	-0.0	-0.0	-0.0	-0.0	-0.0	285207.375	-35954.80078125	6646.4560546875
0.3395	-0.0	-0.0	-0.0	-0.0	-0.0	-0.0	11.35498046875	0.853563129901886	-779.9257202148438	-0.0	-0.0	-0.0	-0.0	-0.0	-0.0	285085.28125	-35887.0625	6880.3896484375
0.34	-0.0	-0.0	-0.0	-0.0	-0.0	-0.0	11.483129501342772	0.65751713514328	-780.6256713867188	-0.0	-0.0	-0.0	-0.0	-0.0	-0.0	285265.40625	-35828.21875	7005.7587890625
0.3405	-0.0	-0.0	-0.0	-0.0	-0.0	-0.0	11.601155281066896	0.1965138018131256	-781.4776611328125	-0.0	-0.0	-0.0	-0.0	-0.0	-0.0	285321.03125	-36034.66015625	7107.83251953125
0.341	-0.0	-0.0	-0.0	-0.0	-0.0	-0.0	11.512252807617188	-0.5499909520149231	-782.528076171875	-0.0	-0.0	-0.0	-0.0	-0.0	-0.0	285274.65625	-35974.46484375	7285.51611328125
0.3415	-0.0	-0.0	-0.0	-0.0	-0.0	-0.0	11.423274040222168	-0.2751287519931793	-780.8235473632812	-0.0	-0.0	-0.0	-0.0	-0.0	-0.0	285294.9375	-36090.33203125	7476.56494140625
0.342	-0.0	-0.0	-0.0	-0.0	-0.0	-0.0	11.769688606262209	-1.22620952129364	-781.7911987304688	-0.0	-0.0	-0.0	-0.0	-0.0	-0.0	284695.59375	-36083.1953125	7552.37109375
0.3425	-0.0	-0.0	-0.0	-0.0	-0.0	-0.0	11.53240203857422	-0.7741154432296753	-780.0457763671875	-0.0	-0.0	-0.0	-0.0	-0.0	-0.0	284574.25	-36219.8828125	7615.08642578125
0.343	-0.0	-0.0	-0.0	-0.0	-0.0	-0.0	11.206043243408203	-0.8054292798042297	-778.7619018554688	-0.0	-0.0	-0.0	-0.0	-0.0	-0.0	284068.15625	-36282.55078125	7605.296875
0.3435	-0.0	-0.0	-0.0	-0.0	-0.0	-0.0	11.404685974121094	-0.5687639713287354	-778.45458984375	-0.0	-0.0	-0.0	-0.0	-0.0	-0.0	283922.71875	-36401.8671875	7657.71044921875
0.34400000000000003	-0.0	-0.0	-0.0	-0.0	-0.0	-0.0	11.326820373535156	-0.6290010213851929	-779.9197387695312	-0.0	-0.0	-0.0	-0.0	-0.0	-0.0	284112.15625	-36587.3984375	7714.73974609375
0.34450000000000003	-0.0	-0.0	-0.0	-0.0	-0.0	-0.0	11.077906608581545	-0.1379292607307434	-780.4830932617188	-0.0	-0.0	-0.0	-0.0	-0.0	-0.0	284386.71875	-36840.9765625	7655.48095703125
0.34500000000000003	-0.0	-0.0	-0.0	-0.0	-0.0	-0.0	10.484634399414062	-0.02197827398777	-780.6595458984375	-0.0	-0.0	-0.0	-0.0	-0.0	-0.0	284405.53125	-36997.44921875	7501.24365234375
0.34550000000000003	-0.0	-0.0	-0.0	-0.0	-0.0	-0.0	10.379161834716797	0.5188074111938477	-780.3538818359375	-0.0	-0.0	-0.0	-0.0	-0.0	-0.0	284371.21875	-37148.8359375	7367.9306640625
0.34600000000000003	-0.0	-0.0	-0.0	-0.0	-0.0	-0.0	9.680778503417969	0.817401647567749	-780.3983764648438	-0.0	-0.0	-0.0	-0.0	-0.0	-0.0	284119.5	-37012.8359375	7365.3779296875
0.34650000000000003	-0.0	-0.0	-0.0	-0.0	-0.0	-0.0	9.175867080688477	1.1368337869644165	-779.4136962890625	-0.0	-0.0	-0.0	-0.0	-0.0	-0.0	284402.46875	-36866.42578125	6944.38818359375
0.34700000000000003	-0.0	-0.0	-0.0	-0.0	-0.0	-0.0	8.392895698547363	1.3018404245376587	-780.5057373046875	-0.0	-0.0	-0.0	-0.0	-0.0	-0.0	284460.1875	-36949.7890625	6832.888671875
0.34750000000000003	-0.0	-0.0	-0.0	-0.0	-0.0	-0.0	7.706174850463867	1.298082947731018	-779.9448852539062	-0.0	-0.0	-0.0	-0.0	-0.0	-0.0	284293.28125	-36648.875	6515.1171875
0.34800000000000003	-0.0	-0.0	-0.0	-0.0	-0.0	-0.0	7.13533878326416	1.3248252868652344	-779.56298828125	-0.0	-0.0	-0.0	-0.0	-0.0	-0.0	283884.0625	-36620.14453125	6335.6474609375
0.34850000000000003	-0.0	-0.0	-0.0	-0.0	-0.0	-0.0	6.665212631225586	0.9742193222045898	-779.7598876953125	-0.0	-0.0	-0.0	-0.0	-0.0	-0.0	283732.0	-36713.9765625	6127.72119140625
0.34900000000000003	-0.0	-0.0	-0.0	-0.0	-0.0	-0.0	6.248110771179199	1.0598602294921875	-777.95703125	-0.0	-0.0	-0.0	-0.0	-0.0	-0.0	283338.9375	-36652.56640625	6052.16455078125
0.34950000000000003	-0.0	-0.0	-0.0	-0.0	-0.0	-0.0	6.298465728759766	0.9454972743988036	-778.2589111328125	-0.0	-0.0	-0.0	-0.0	-0.0	-0.0	283024.75	-36734.484375	6009.6591796875
0.35000000000000003	-0.0	-0.0	-0.0	-0.0	-0.0	-0.0	6.628781795501709	0.995958149433136	-776.3627319335938	-0.0	-0.0	-0.0	-0.0	-0.0	-0.0	282559.9375	-36799.85546875	6094.296875
0.35050000000000003	-0.0	-0.0	-0.0	-0.0	-0.0	-0.0	6.665668487548828	0.7311842441558838	-775.4127807617188	-0.0	-0.0	-0.0	-0.0	-0.0	-0.0	282253.03125	-36913.58984375	6098.81982421875
0.35100000000000003	-0.0	-0.0	-0.0	-0.0	-0.0	-0.0	6.653308868408203	0.5050308704376221	-775.5664672851562	-0.0	-0.0	-0.0	-0.0	-0.0	-0.0	281907.8125	-37081.125	6119.833984375
0.35150000000000003	-0.0	-0.0	-0.0	-0.0	-0.0	-0.0	6.818130016326904	0.7444618344306946	-775.4656982421875	-0.0	-0.0	-0.0	-0.0	-0.0	-0.0	281922.53125	-37229.703125	5997.17431640625
0.352	-0.0	-0.0	-0.0	-0.0	-0.0	-0.0	6.716744899749756	0.554928183555603	-774.6685791015625	-0.0	-0.0	-0.0	-0.0	-0.0	-0.0	281875.84375	-37592.80859375	5925.0205078125
0.3525	-0.0	-0.0	-0.0	-0.0	-0.0	-0.0	6.261216640472412	0.4159904718399048	-774.5675659179688	-0.0	-0.0	-0.0	-0.0	-0.0	-0.0	281826.9375	-37510.11328125	5683.29638671875
0.353	-0.0	-0.0	-0.0	-0.0	-0.0	-0.0	5.702404499053955	0.971538543701172	-774.5203247070312	-0.0	-0.0	-0.0	-0.0	-0.0	-0.0	282116.625	-37815.61328125	5381.82470703125
0.3535	-0.0	-0.0	-0.0	-0.0	-0.0	-0.0	5.20922327041626	0.8947839140892029	-774.5155029296875	-0.0	-0.0	-0.0	-0.0	-0.0	-0.0	282026.65625	-37717.203125	4991.86962890625
0.354	-0.0	-0.0	-0.0	-0.0	-0.0	-0.0	4.105213165283203	1.3755698204040527	-775.1165771484375	-0.0	-0.0	-0.0	-0.0	-0.0	-0.0	282180.25	-37945.0390625	4554.48828125
0.3545	-0.0	-0.0	-0.0	-0.0	-0.0	-0.0	3.637142181396485	1.2983002662658691	-775.6665649414062	-0.0	-0.0	-0.0	-0.0	-0.0	-0.0	282694.9375	-37796.30078125	4173.69921875
0.355	-0.0	-0.0	-0.0	-0.0	-0.0	-0.0	3.0430984497070312	1.4640111923217771	-776.3651123046875	-0.0	-0.0	-0.0	-0.0	-0.0	-0.0	282780.59375	-37878.359375	3867.866943359375
0.3555	-0.0	-0.0	-0.0	-0.0	-0.0	-0.0	2.207316875457764	1.6272003650665283	-778.2178344726562	-0.0	-0.0	-0.0	-0.0	-0.0	-0.0	283618.84375	-37966.49609375	3497.80517578125
0.356	-0.0	-0.0	-0.0	-0.0	-0.0	-0.0	1.8015786409378047	1.983941435813904	-783.18701171875	-0.0	-0.0	-0.0	-0.0	-0.0	-0.0	284547.0	-38195.8359375	3358.396484375
0.3565	-0.0	-0.0	-0.0	-0.0	-0.0	-0.0	2.0737533569335938	1.966589331626892	-784.7454833984375	-0.0	-0.0	-0.0	-0.0	-0.0	-0.0	285257.65625	-38437.7734375	3179.300048828125
0.357	-0.0	-0.0	-0.0	-0.0	-0.0	-0.0	2.1195077896118164	1.994168281555176	-786.6934204101562	-0.0	-0.0	-0.0	-0.0	-0.0	-0.0	286126.15625	-38615.58984375	3244.704833984375
0.3575	-0.0	-0.0	-0.0	-0.0	-0.0	-0.0	2.5071732997894287	1.77125346660614	-786.3810424804688	-0.0	-0.0	-0.0	-0.0	-0.0	-0.0	286447.65625	-38777.8359375	3260.5771484375
0.358	-0.0	-0.0	-0.0	-0.0	-0.0	-0.0	2.82455849647522	1.5809402465820312	-789.4317626953125	-0.0	-0.0	-0.0	-0.0	-0.0	-0.0	286856.40625	-38971.1953125	3510.483154296875
0.3585	-0.0	-0.0	-0.0	-0.0	-0.0	-0.0	3.090595245361328	1.1111308336257937	-788.7113037109375	-0.0	-0.0	-0.0	-0.0	-0.0	-0.0	287254.5	-38958.87109375	3562.1650390625
0.359	-0.0	-0.0	-0.0	-0.0	-0.0	-0.0	3.659856796264648	1.0598602294921875	-792.6309204101562	-0.0	-0.0	-0.0	-0.0	-0.0	-0.0	287822.46875	-39202.12109375	3646.724609375
0.3595	-0.0	-0.0	-0.0	-0.0	-0.0	-0.0	4.037055015563965	1.1995843648910522	-793.653076171875	-0.0	-0.0	-0.0	-0.0	-0.0	-0.0	288019.5625	-39505.64453125	3740.844970703125
0.36	-0.0	-0.0	-0.0	-0.0	-0.0	-0.0	4.923876762390137	1.965370535850525	-795.0181884765625	-0.0	-0.0	-0.0	-0.0	-0.0	-0.0	288478.65625	-40183.1015625	4169.3505859375
0.3605	-0.0	-0.0	-0.0	-0.0	-0.0	-0.0	5.603566646575928	2.414130449295044	-798.9462280273438	-0.0	-0.0	-0.0	-0.0	-0.0	-0.0	289331.3125	-40959.16796875	4328.12890625
0.361	-0.0	-0.0	-0.0	-0.0	-0.0	-0.0	6.564598083496094	0.4048562943935394	-803.6298828125	-0.0	-0.0	-0.0	-0.0	-0.0	-0.0	291162.0	-41530.05859375	4924.025390625
0.3615	-0.0	-0.0	-0.0	-0.0	-0.0	-0.0	7.696008682250977	-2.252896308898926	-808.4041748046875	-0.0	-0.0	-0.0	-0.0	-0.0	-0.0	292517.65625	-41868.84375	5477.68359375
0.362	-0.0	-0.0	-0.0	-0.0	-0.0	-0.0	7.69620418548584	-1.9215378761291504	-812.390625	-0.0	-0.0	-0.0	-0.0	-0.0	-0.0	293458.84375	-42104.8046875	5393.7099609375
0.3625	-0.0	-0.0	-0.0	-0.0	-0.0	-0.0	7.78505802154541	-0.8618200421333313	-812.0420532226562	-0.0	-0.0	-0.0	-0.0	-0.0	-0.0	293741.34375	-42119.84765625	5359.2177734375
0.363	-0.0	-0.0	-0.0	-0.0	-0.0	-0.0	6.992764472961426	-1.5897903442382812	-814.1610107421875	-0.0	-0.0	-0.0	-0.0	-0.0	-0.0	294179.21875	-42149.171875	5012.646484375
0.3635	-0.0	-0.0	-0.0	-0.0	-0.0	-0.0	6.130965709686279	-1.7411160469055176	-814.5706787109375	-0.0	-0.0	-0.0	-0.0	-0.0	-0.0	294187.875	-41837.63671875	4856.58154296875
0.364	-0.0	-0.0	-0.0	-0.0	-0.0	-0.0	6.0791425704956055	-1.5067930221557615	-815.6181640625	-0.0	-0.0	-0.0	-0.0	-0.0	-0.0	294466.875	-41467.26171875	4614.08984375
0.3645	-0.0	-0.0	-0.0	-0.0	-0.0	-0.0	5.818430423736572	-1.7664337158203125	-815.9053344726562	-0.0	-0.0	-0.0	-0.0	-0.0	-0.0	294504.875	-41187.5703125	4493.4912109375
0.365	-0.0	-0.0	-0.0	-0.0	-0.0	-0.0	6.10045337677002	-1.7774808406829834	-815.7615356445312	-0.0	-0.0	-0.0	-0.0	-0.0	-0.0	294520.78125	-41199.23828125	4460.37841796875
0.3655	-0.0	-0.0	-0.0	-0.0	-0.0	-0.0	6.99217414855957	-1.802640676498413	-815.492431640625	-0.0	-0.0	-0.0	-0.0	-0.0	-0.0	294257.90625	-40986.0	4679.2724609375
0.366	-0.0	-0.0	-0.0	-0.0	-0.0	-0.0	7.520223140716553	-2.312401056289673	-815.6976928710938	-0.0	-0.0	-0.0	-0.0	-0.0	-0.0	294235.25	-41004.484375	4880.4365234375
0.3665	-0.0	-0.0	-0.0	-0.0	-0.0	-0.0	8.072681427001953	-2.8262939453125	-815.5543823242188	-0.0	-0.0	-0.0	-0.0	-0.0	-0.0	294461.5625	-40881.43359375	4911.712890625
0.367	-0.0	-0.0	-0.0	-0.0	-0.0	-0.0	7.947789669036865	-2.473007202148437	-818.5401000976562	-0.0	-0.0	-0.0	-0.0	-0.0	-0.0	294918.25	-40829.41015625	4763.369140625
0.3675	-0.0	-0.0	-0.0	-0.0	-0.0	-0.0	7.629127502441406	-1.7664337158203125	-820.0923461914062	-0.0	-0.0	-0.0	-0.0	-0.0	-0.0	295408.375	-40693.71875	4501.8330078125
0.368	-0.0	-0.0	-0.0	-0.0	-0.0	-0.0	6.686437606811523	-1.8382636308670044	-823.58349609375	-0.0	-0.0	-0.0	-0.0	-0.0	-0.0	296380.375	-40607.015625	4020.011962890625
0.3685	-0.0	-0.0	-0.0	-0.0	-0.0	-0.0	6.581307411193848	-1.451560616493225	-824.346923828125	-0.0	-0.0	-0.0	-0.0	-0.0	-0.0	296607.125	-40565.41796875	3861.50048828125
0.369	-0.0	-0.0	-0.0	-0.0	-0.0	-0.0	6.461426258087158	-1.0598602294921875	-825.7528076171875	-0.0	-0.0	-0.0	-0.0	-0.0	-0.0	297155.65625	-40313.953125	3713.114990234375
